<?xml version="1.0" encoding="UTF-8" standalone="no"?>
<!DOCTYPE svg PUBLIC "-//W3C//DTD SVG 1.1//EN" "http://www.w3.org/Graphics/SVG/1.1/DTD/svg11.dtd">
<svg width="100%" height="100%" viewBox="0 0 200 200" version="1.1" xmlns="http://www.w3.org/2000/svg" xmlns:xlink="http://www.w3.org/1999/xlink" xml:space="preserve" xmlns:serif="http://www.serif.com/" style="fill-rule:evenodd;clip-rule:evenodd;stroke-linecap:round;stroke-linejoin:round;stroke-miterlimit:1.5;">
    <g id="Vector" transform="matrix(1,0,0,1,0,-13)">
        <path d="M69.589,66L52,84L51,97L29,114.994L28,137L8.985,153L13,178.73L34,192L170,192C199.856,171.638 198.947,153.738 171,138C175.91,116.154 167.295,102.661 146,97C152.103,52.517 135.353,34.861 106,32L104,53L95,64L69.589,66Z" style="fill:rgb(142,86,46);"/>
        <g transform="matrix(1.53846,0,0,0.923077,-31.5385,8.15385)">
            <rect x="53" y="93" width="65" height="13" style="fill:rgb(97,61,48);"/>
        </g>
        <g transform="matrix(2.18462,0,0,0.923077,-88.696,44.1538)">
            <rect x="53" y="93" width="65" height="13" style="fill:rgb(97,61,48);"/>
        </g>
        <g transform="matrix(2.66154,0,0,0.923077,-127.973,87.1538)">
            <rect x="53" y="93" width="65" height="13" style="fill:rgb(97,61,48);"/>
        </g>
        <path d="M31,191C14.218,186.745 8.72,172.973 8.995,164.486C9.277,155.763 10.768,142.34 30,138C22.219,122.264 30.035,105.716 53,98C48.25,80.391 59.086,63.57 79,64L98,64C103.845,60.48 104.55,57.062 105,52L105,32C135.922,33.356 159.702,58.166 144,98C169.101,104.865 179.123,116.721 168,139C200.252,146.374 198.11,178.313 171,192L31,191Z" style="fill:none;stroke:black;stroke-width:12.4px;"/>
        <path d="M71,94L75,94C80.765,94.197 86.63,98.866 87,106L87,124C88.186,129.198 83.292,133.885 76,136L71,136C63.451,135.836 58.61,129.79 58,125L58,107C59.201,99.592 64.404,93.699 71,94Z" style="fill:white;"/>
        <g transform="matrix(1,0,0,1,54,0)">
            <path d="M71,94L75,94C80.765,94.197 86.63,98.866 87,106L87,124C88.186,129.198 83.292,133.885 76,136L71,136C63.451,135.836 58.61,129.79 58,125L58,107C59.201,99.592 64.404,93.699 71,94Z" style="fill:white;"/>
        </g>
        <g transform="matrix(0.622992,0,0,0.714361,81.8664,32.847)">
            <path d="M71,94L75,94C80.765,94.197 86.63,98.866 87,106L87,124C88.186,129.198 83.292,133.885 76,136L71,136C63.451,135.836 58.61,129.79 58,125L58,107C59.201,99.592 64.404,93.699 71,94Z"/>
        </g>
        <g transform="matrix(0.622992,0,0,0.714361,27.3664,32.858)">
            <path d="M71,94L75,94C80.765,94.197 86.63,98.866 87,106L87,124C88.186,129.198 83.292,133.885 76,136L71,136C63.451,135.836 58.61,129.79 58,125L58,107C59.201,99.592 64.404,93.699 71,94Z"/>
        </g>
        <path d="M69.589,149L130.089,149C128.024,165.752 119.396,175.121 105,178L96,178C79.624,175.905 71.321,165.738 69.589,149Z"/>
        <path d="M85.732,175.227C87.826,168.489 91.738,163.798 100,164C107.343,164.512 112.052,168.034 114,174.711C104.577,179.932 95.155,180.025 85.732,175.227Z" style="fill:rgb(232,18,36);"/>
    </g>
</svg>
